# This file is brought to you by Roblox Corporation
# Generated by Roblox Studio

mtllib Cylinder.mtl

g Cylinder1

v 14.3147 20 4.44429 
v 13.0711 0 2.92893 
v 13.0711 20 2.92893 
v 14.3147 0 4.4443 
v 15.2388 20 6.17316 
v 14.3147 0 4.4443 
v 14.3147 20 4.44429 
v 15.2388 1.90735e-06 6.17317 
v 15.8079 20 8.04909 
v 15.2388 1.90735e-06 6.17317 
v 15.2388 20 6.17316 
v 15.8079 1.90735e-06 8.0491 
v 16 20 10 
v 15.8079 1.90735e-06 8.0491 
v 15.8079 20 8.04909 
v 16 1.90735e-06 10 
v 15.8079 20 11.9509 
v 16 1.90735e-06 10 
v 16 20 10 
v 15.8079 1.90735e-06 11.9509 
v 15.2388 20 13.8268 
v 15.8079 1.90735e-06 11.9509 
v 15.8079 20 11.9509 
v 15.2388 1.90735e-06 13.8268 
v 14.3147 20 15.5557 
v 15.2388 1.90735e-06 13.8268 
v 15.2388 20 13.8268 
v 14.3147 1.90735e-06 15.5557 
v 13.0711 20 17.0711 
v 14.3147 1.90735e-06 15.5557 
v 14.3147 20 15.5557 
v 13.0711 3.8147e-06 17.0711 
v -3.80785 20 11.9509 
v 4.04911 20 0.192141 
v -1.07106 20 2.92892 
v 13.0711 20 2.92893 
v 9.82683 20 0.761202 
v 7.9509 20 0.192144 
v 2.17316 20 19.2388 
v 7.9509 20 19.8078 
v 15.2388 20 13.8268 
v 15.2388 20 6.17316 
v 6 20 -3.8147e-06 
v 0.444309 20 1.68529 
v 2.17318 20 0.761196 
v -3.23879 20 6.17315 
v -2.31469 20 4.44428 
v -3.80785 20 8.04908 
v -4 20 9.99999 
v -2.3147 20 15.5557 
v -3.2388 20 13.8268 
v 0.444293 20 18.3147 
v -1.07107 20 17.0711 
v 4.04909 20 19.8078 
v 6 20 20 
v 11.5557 20 18.3147 
v 9.82683 20 19.2388 
v 13.0711 20 17.0711 
v 14.3147 20 15.5557 
v 16 20 10 
v 15.8079 20 11.9509 
v 15.8079 20 8.04909 
v 14.3147 20 4.44429 
v 11.5557 20 1.6853 
v 11.5557 20 18.3147 
v 13.0711 3.8147e-06 17.0711 
v 13.0711 20 17.0711 
v 11.5557 3.8147e-06 18.3147 
v 9.82683 20 19.2388 
v 11.5557 3.8147e-06 18.3147 
v 11.5557 20 18.3147 
v 9.82683 3.8147e-06 19.2388 
v 7.9509 20 19.8078 
v 9.82683 3.8147e-06 19.2388 
v 9.82683 20 19.2388 
v 7.9509 3.8147e-06 19.8079 
v 6 20 20 
v 7.9509 3.8147e-06 19.8079 
v 7.9509 20 19.8078 
v 6 3.8147e-06 20 
v 4.04909 20 19.8078 
v 6 3.8147e-06 20 
v 6 20 20 
v 4.04909 3.8147e-06 19.8079 
v 2.17316 20 19.2388 
v 4.04909 3.8147e-06 19.8079 
v 4.04909 20 19.8078 
v 2.17316 3.8147e-06 19.2388 
v 0.444293 20 18.3147 
v 2.17316 3.8147e-06 19.2388 
v 2.17316 20 19.2388 
v 0.444293 3.8147e-06 18.3147 
v -1.07107 20 17.0711 
v 0.444293 3.8147e-06 18.3147 
v 0.444293 20 18.3147 
v -1.07107 3.8147e-06 17.0711 
v -2.3147 20 15.5557 
v -1.07107 3.8147e-06 17.0711 
v -1.07107 20 17.0711 
v -2.3147 1.90735e-06 15.5557 
v -3.2388 20 13.8268 
v -2.3147 1.90735e-06 15.5557 
v -2.3147 20 15.5557 
v -3.2388 1.90735e-06 13.8268 
v -3.80785 20 11.9509 
v -3.2388 1.90735e-06 13.8268 
v -3.2388 20 13.8268 
v -3.80785 1.90735e-06 11.9509 
v -4 20 9.99999 
v -3.80785 1.90735e-06 11.9509 
v -3.80785 20 11.9509 
v -4 1.90735e-06 9.99999 
v -3.80785 20 8.04908 
v -4 1.90735e-06 9.99999 
v -4 20 9.99999 
v -3.80785 1.90735e-06 8.04909 
v -3.23879 20 6.17315 
v -3.80785 1.90735e-06 8.04909 
v -3.80785 20 8.04908 
v -3.23879 1.90735e-06 6.17315 
v -2.31469 20 4.44428 
v -3.23879 1.90735e-06 6.17315 
v -3.23879 20 6.17315 
v -2.31469 0 4.44429 
v -1.07106 20 2.92892 
v -2.31469 0 4.44429 
v -2.31469 20 4.44428 
v -1.07106 0 2.92892 
v 4.04911 0 0.192144 
v 15.2388 1.90735e-06 6.17317 
v 15.2388 1.90735e-06 13.8268 
v 2.17316 3.8147e-06 19.2388 
v -3.80785 1.90735e-06 11.9509 
v 7.9509 0 0.192146 
v 13.0711 0 2.92893 
v -1.07106 0 2.92892 
v 6 0 0 
v 9.82683 0 0.761204 
v 11.5557 0 1.6853 
v 14.3147 0 4.4443 
v 15.8079 1.90735e-06 8.0491 
v 16 1.90735e-06 10 
v 15.8079 1.90735e-06 11.9509 
v 13.0711 3.8147e-06 17.0711 
v 7.9509 3.8147e-06 19.8079 
v 14.3147 1.90735e-06 15.5557 
v 11.5557 3.8147e-06 18.3147 
v 9.82683 3.8147e-06 19.2388 
v 4.04909 3.8147e-06 19.8079 
v 6 3.8147e-06 20 
v 0.444293 3.8147e-06 18.3147 
v -2.3147 1.90735e-06 15.5557 
v -1.07107 3.8147e-06 17.0711 
v -3.2388 1.90735e-06 13.8268 
v -3.80785 1.90735e-06 8.04909 
v -4 1.90735e-06 9.99999 
v -3.23879 1.90735e-06 6.17315 
v -2.31469 0 4.44429 
v 0.444309 0 1.6853 
v 2.17318 0 0.761198 
v 7.9509 20 0.192144 
v 6 0 0 
v 6 20 -3.8147e-06 
v 7.9509 0 0.192146 
v 9.82683 20 0.761202 
v 7.9509 0 0.192146 
v 7.9509 20 0.192144 
v 9.82683 0 0.761204 
v 11.5557 20 1.6853 
v 9.82683 0 0.761204 
v 9.82683 20 0.761202 
v 11.5557 0 1.6853 
v 13.0711 20 2.92893 
v 11.5557 0 1.6853 
v 11.5557 20 1.6853 
v 13.0711 0 2.92893 
v 0.444309 20 1.68529 
v -1.07106 0 2.92892 
v -1.07106 20 2.92892 
v 0.444309 0 1.6853 
v 2.17318 20 0.761196 
v 0.444309 0 1.6853 
v 0.444309 20 1.68529 
v 2.17318 0 0.761198 
v 6 20 -3.8147e-06 
v 4.04911 0 0.192144 
v 4.04911 20 0.192141 
v 6 0 0 
v 4.04911 20 0.192141 
v 2.17318 0 0.761198 
v 2.17318 20 0.761196 
v 4.04911 0 0.192144 

vn 0.771654 0 -0.637795 
vn 0.771654 0 -0.637795 
vn 0.771654 0 -0.637795 
vn 0.771654 0 -0.637795 
vn 0.88189 0 -0.472441 
vn 0.88189 0 -0.472441 
vn 0.88189 0 -0.472441 
vn 0.88189 0 -0.472441 
vn 0.96063 0 -0.291339 
vn 0.96063 0 -0.291339 
vn 0.96063 0 -0.291339 
vn 0.96063 0 -0.291339 
vn 0.992126 0 -0.0944882 
vn 0.992126 0 -0.0944882 
vn 0.992126 0 -0.0944882 
vn 0.992126 0 -0.0944882 
vn 0.992126 0 0.0944882 
vn 0.992126 0 0.0944882 
vn 0.992126 0 0.0944882 
vn 0.992126 0 0.0944882 
vn 0.96063 0 0.291339 
vn 0.96063 0 0.291339 
vn 0.96063 0 0.291339 
vn 0.96063 0 0.291339 
vn 0.88189 0 0.472441 
vn 0.88189 0 0.472441 
vn 0.88189 0 0.472441 
vn 0.88189 0 0.472441 
vn 0.771654 0 0.637795 
vn 0.771654 0 0.637795 
vn 0.771654 0 0.637795 
vn 0.771654 0 0.637795 
vn 0 1 0 
vn 0 1 0 
vn 0 1 0 
vn 0 1 0 
vn 0 1 0 
vn 0 1 0 
vn 0 1 0 
vn 0 1 0 
vn 0 1 0 
vn 0 1 0 
vn 0 1 0 
vn 0 1 0 
vn 0 1 0 
vn 0 1 0 
vn 0 1 0 
vn 0 1 0 
vn 0 1 0 
vn 0 1 0 
vn 0 1 0 
vn 0 1 0 
vn 0 1 0 
vn 0 1 0 
vn 0 1 0 
vn 0 1 0 
vn 0 1 0 
vn 0 1 0 
vn 0 1 0 
vn 0 1 0 
vn 0 1 0 
vn 0 1 0 
vn 0 1 0 
vn 0 1 0 
vn 0.637795 0 0.771654 
vn 0.637795 0 0.771654 
vn 0.637795 0 0.771654 
vn 0.637795 0 0.771654 
vn 0.472441 0 0.88189 
vn 0.472441 0 0.88189 
vn 0.472441 0 0.88189 
vn 0.472441 0 0.88189 
vn 0.291339 0 0.96063 
vn 0.291339 0 0.96063 
vn 0.291339 0 0.96063 
vn 0.291339 0 0.96063 
vn 0.0944882 0 0.992126 
vn 0.0944882 0 0.992126 
vn 0.0944882 0 0.992126 
vn 0.0944882 0 0.992126 
vn -0.0944882 0 0.992126 
vn -0.0944882 0 0.992126 
vn -0.0944882 0 0.992126 
vn -0.0944882 0 0.992126 
vn -0.291339 0 0.96063 
vn -0.291339 0 0.96063 
vn -0.291339 0 0.96063 
vn -0.291339 0 0.96063 
vn -0.472441 0 0.88189 
vn -0.472441 0 0.88189 
vn -0.472441 0 0.88189 
vn -0.472441 0 0.88189 
vn -0.637795 0 0.771654 
vn -0.637795 0 0.771654 
vn -0.637795 0 0.771654 
vn -0.637795 0 0.771654 
vn -0.771654 0 0.637795 
vn -0.771654 0 0.637795 
vn -0.771654 0 0.637795 
vn -0.771654 0 0.637795 
vn -0.88189 0 0.472441 
vn -0.88189 0 0.472441 
vn -0.88189 0 0.472441 
vn -0.88189 0 0.472441 
vn -0.96063 0 0.291339 
vn -0.96063 0 0.291339 
vn -0.96063 0 0.291339 
vn -0.96063 0 0.291339 
vn -0.992126 0 0.0944882 
vn -0.992126 0 0.0944882 
vn -0.992126 0 0.0944882 
vn -0.992126 0 0.0944882 
vn -0.992126 0 -0.0944882 
vn -0.992126 0 -0.0944882 
vn -0.992126 0 -0.0944882 
vn -0.992126 0 -0.0944882 
vn -0.96063 0 -0.291339 
vn -0.96063 0 -0.291339 
vn -0.96063 0 -0.291339 
vn -0.96063 0 -0.291339 
vn -0.88189 0 -0.472441 
vn -0.88189 0 -0.472441 
vn -0.88189 0 -0.472441 
vn -0.88189 0 -0.472441 
vn -0.771654 0 -0.637795 
vn -0.771654 0 -0.637795 
vn -0.771654 0 -0.637795 
vn -0.771654 0 -0.637795 
vn 0 -1 0 
vn 0 -1 0 
vn 0 -1 0 
vn 0 -1 0 
vn 0 -1 0 
vn 0 -1 0 
vn 0 -1 0 
vn 0 -1 0 
vn 0 -1 0 
vn 0 -1 0 
vn 0 -1 0 
vn 0 -1 0 
vn 0 -1 0 
vn 0 -1 0 
vn 0 -1 0 
vn 0 -1 0 
vn 0 -1 0 
vn 0 -1 0 
vn 0 -1 0 
vn 0 -1 0 
vn 0 -1 0 
vn 0 -1 0 
vn 0 -1 0 
vn 0 -1 0 
vn 0 -1 0 
vn 0 -1 0 
vn 0 -1 0 
vn 0 -1 0 
vn 0 -1 0 
vn 0 -1 0 
vn 0 -1 0 
vn 0 -1 0 
vn 0.0944882 0 -0.992126 
vn 0.0944882 0 -0.992126 
vn 0.0944882 0 -0.992126 
vn 0.0944882 0 -0.992126 
vn 0.291339 0 -0.96063 
vn 0.291339 0 -0.96063 
vn 0.291339 0 -0.96063 
vn 0.291339 0 -0.96063 
vn 0.472441 0 -0.88189 
vn 0.472441 0 -0.88189 
vn 0.472441 0 -0.88189 
vn 0.472441 0 -0.88189 
vn 0.637795 0 -0.771654 
vn 0.637795 0 -0.771654 
vn 0.637795 0 -0.771654 
vn 0.637795 0 -0.771654 
vn -0.637795 0 -0.771654 
vn -0.637795 0 -0.771654 
vn -0.637795 0 -0.771654 
vn -0.637795 0 -0.771654 
vn -0.472441 0 -0.88189 
vn -0.472441 0 -0.88189 
vn -0.472441 0 -0.88189 
vn -0.472441 0 -0.88189 
vn -0.0944882 0 -0.992126 
vn -0.0944882 0 -0.992126 
vn -0.0944882 0 -0.992126 
vn -0.0944882 0 -0.992126 
vn -0.291339 0 -0.96063 
vn -0.291339 0 -0.96063 
vn -0.291339 0 -0.96063 
vn -0.291339 0 -0.96063 

vt 4.52043 31.1893 
vt 6.49041 5.18934 
vt 6.49041 31.1893 
vt 4.52043 5.18934 
vt 2.27291 31.1893 
vt 4.52043 5.18934 
vt 4.52043 31.1893 
vt 2.2729 5.18934 
vt -0.165804 31.1893 
vt 2.2729 5.18934 
vt 2.27291 31.1893 
vt -0.165808 5.18934 
vt -2.70198 31.1893 
vt -0.165808 5.18934 
vt -0.165804 31.1893 
vt -2.70198 5.18934 
vt -5.23815 31.1893 
vt -2.70198 5.18934 
vt -2.70198 31.1893 
vt -5.23816 5.18934 
vt -7.67686 31.1893 
vt -5.23816 5.18934 
vt -5.23815 31.1893 
vt -7.67687 5.18934 
vt -9.92439 31.1893 
vt -7.67687 5.18934 
vt -7.67686 31.1893 
vt -9.92439 5.18934 
vt -11.8944 31.1893 
vt -9.92439 5.18934 
vt -9.92439 31.1893 
vt -11.8944 5.18935 
vt 10.0482 20.7255 
vt -0.165826 5.43913 
vt 6.49039 8.99694 
vt -11.8944 8.99695 
vt -7.67687 6.17891 
vt -5.23816 5.43913 
vt 2.27291 30.1998 
vt -5.23815 30.9395 
vt -14.7124 23.1642 
vt -14.7124 13.2145 
vt -2.70198 5.18934 
vt 4.52042 7.38023 
vt 2.27289 6.1789 
vt 9.30845 13.2144 
vt 8.10712 10.9669 
vt 10.0482 15.6532 
vt 10.298 18.1893 
vt 8.10713 25.4117 
vt 9.30846 23.1642 
vt 4.52044 28.9984 
vt 6.49041 27.3817 
vt -0.165801 30.9395 
vt -2.70198 31.1893 
vt -9.92439 28.9984 
vt -7.67686 30.1998 
vt -11.8944 27.3817 
vt -13.5111 25.4118 
vt -15.702 18.1893 
vt -15.4522 20.7255 
vt -15.4522 15.6532 
vt -13.5111 10.9669 
vt -9.92439 7.38024 
vt 4.52043 31.1893 
vt 6.49041 5.18935 
vt 6.49041 31.1893 
vt 4.52043 5.18935 
vt 2.2729 31.1893 
vt 4.52043 5.18935 
vt 4.52043 31.1893 
vt 2.2729 5.18935 
vt -0.16581 31.1893 
vt 2.2729 5.18935 
vt 2.2729 31.1893 
vt -0.16581 5.18935 
vt -2.70198 31.1893 
vt -0.16581 5.18935 
vt -0.16581 31.1893 
vt -2.70198 5.18935 
vt -5.23816 31.1893 
vt -2.70198 5.18935 
vt -2.70198 31.1893 
vt -5.23816 5.18935 
vt -7.67687 31.1893 
vt -5.23816 5.18935 
vt -5.23816 31.1893 
vt -7.67687 5.18935 
vt -9.9244 31.1893 
vt -7.67687 5.18935 
vt -7.67687 31.1893 
vt -9.9244 5.18935 
vt -11.8944 31.1893 
vt -9.9244 5.18935 
vt -9.9244 31.1893 
vt -11.8944 5.18935 
vt 4.52042 31.1893 
vt 6.4904 5.18935 
vt 6.4904 31.1893 
vt 4.52043 5.18934 
vt 2.27289 31.1893 
vt 4.52043 5.18934 
vt 4.52042 31.1893 
vt 2.2729 5.18934 
vt -0.16582 31.1893 
vt 2.2729 5.18934 
vt 2.27289 31.1893 
vt -0.165816 5.18934 
vt -2.702 31.1893 
vt -0.165816 5.18934 
vt -0.16582 31.1893 
vt -2.70199 5.18934 
vt -5.23817 31.1893 
vt -2.70199 5.18934 
vt -2.702 31.1893 
vt -5.23817 5.18934 
vt -7.67688 31.1893 
vt -5.23817 5.18934 
vt -5.23817 31.1893 
vt -7.67688 5.18934 
vt -9.92441 31.1893 
vt -7.67688 5.18934 
vt -7.67688 31.1893 
vt -9.92441 5.18934 
vt -11.8944 31.1893 
vt -9.92441 5.18934 
vt -9.92441 31.1893 
vt -11.8944 5.18934 
vt -5.23814 5.43913 
vt 9.30845 13.2145 
vt 9.30845 23.1642 
vt -7.67687 30.1998 
vt -15.4522 20.7255 
vt -0.165807 5.43914 
vt 6.49041 8.99696 
vt -11.8944 8.99695 
vt -2.70198 5.18935 
vt 2.2729 6.17891 
vt 4.52043 7.38024 
vt 8.10712 10.9669 
vt 10.0482 15.6532 
vt 10.298 18.1893 
vt 10.0482 20.7255 
vt 6.49041 27.3817 
vt -0.16581 30.9396 
vt 8.10712 25.4118 
vt 4.52043 28.9984 
vt 2.2729 30.1998 
vt -5.23816 30.9396 
vt -2.70198 31.1893 
vt -9.9244 28.9984 
vt -13.5111 25.4117 
vt -11.8944 27.3817 
vt -14.7124 23.1642 
vt -15.4522 15.6532 
vt -15.702 18.1893 
vt -14.7124 13.2144 
vt -13.5111 10.9669 
vt -9.92438 7.38023 
vt -7.67685 6.1789 
vt -5.23816 31.1893 
vt -2.70198 5.18934 
vt -2.70198 31.1893 
vt -5.23816 5.18934 
vt -7.67687 31.1893 
vt -5.23816 5.18934 
vt -5.23816 31.1893 
vt -7.67687 5.18934 
vt -9.92439 31.1893 
vt -7.67687 5.18934 
vt -7.67687 31.1893 
vt -9.92439 5.18934 
vt -11.8944 31.1893 
vt -9.92439 5.18934 
vt -9.92439 31.1893 
vt -11.8944 5.18934 
vt 4.52042 31.1893 
vt 6.49039 5.18934 
vt 6.49039 31.1893 
vt 4.52042 5.18934 
vt 2.27289 31.1893 
vt 4.52042 5.18934 
vt 4.52042 31.1893 
vt 2.27289 5.18934 
vt -2.70198 31.1893 
vt -0.165826 5.18934 
vt -0.165826 31.1893 
vt -2.70198 5.18934 
vt -0.165826 31.1893 
vt 2.27289 5.18934 
vt 2.27289 31.1893 
vt -0.165826 5.18934 

usemtl Cylinder1Mtl

f 1/1/1 2/2/2 3/3/3 
f 2/2/2 1/1/1 4/4/4 
f 5/5/5 6/6/6 7/7/7 
f 6/6/6 5/5/5 8/8/8 
f 9/9/9 10/10/10 11/11/11 
f 10/10/10 9/9/9 12/12/12 
f 13/13/13 14/14/14 15/15/15 
f 14/14/14 13/13/13 16/16/16 
f 17/17/17 18/18/18 19/19/19 
f 18/18/18 17/17/17 20/20/20 
f 21/21/21 22/22/22 23/23/23 
f 22/22/22 21/21/21 24/24/24 
f 25/25/25 26/26/26 27/27/27 
f 26/26/26 25/25/25 28/28/28 
f 29/29/29 30/30/30 31/31/31 
f 30/30/30 29/29/29 32/32/32 
f 33/33/33 34/34/34 35/35/35 
f 36/36/36 37/37/37 38/38/38 
f 39/39/39 34/34/34 33/33/33 
f 40/40/40 41/41/41 39/39/39 
f 42/42/42 34/34/34 41/41/41 
f 34/34/34 42/42/42 38/38/38 
f 34/34/34 38/38/38 43/43/43 
f 34/34/34 44/44/44 35/35/35 
f 44/44/44 34/34/34 45/45/45 
f 35/35/35 46/46/46 33/33/33 
f 46/46/46 35/35/35 47/47/47 
f 33/33/33 46/46/46 48/48/48 
f 33/33/33 48/48/48 49/49/49 
f 33/33/33 50/50/50 39/39/39 
f 50/50/50 33/33/33 51/51/51 
f 50/50/50 52/52/52 39/39/39 
f 52/52/52 50/50/50 53/53/53 
f 41/41/41 34/34/34 39/39/39 
f 54/54/54 40/40/40 39/39/39 
f 40/40/40 54/54/54 55/55/55 
f 56/56/56 40/40/40 57/57/57 
f 58/58/58 40/40/40 56/56/56 
f 41/41/41 40/40/40 58/58/58 
f 41/41/41 58/58/58 59/59/59 
f 60/60/60 41/41/41 61/61/61 
f 62/62/62 41/41/41 60/60/60 
f 42/42/42 41/41/41 62/62/62 
f 36/36/36 38/38/38 42/42/42 
f 36/36/36 42/42/42 63/63/63 
f 37/37/37 36/36/36 64/64/64 
f 65/65/65 66/66/66 67/67/67 
f 66/66/66 65/65/65 68/68/68 
f 69/69/69 70/70/70 71/71/71 
f 70/70/70 69/69/69 72/72/72 
f 73/73/73 74/74/74 75/75/75 
f 74/74/74 73/73/73 76/76/76 
f 77/77/77 78/78/78 79/79/79 
f 78/78/78 77/77/77 80/80/80 
f 81/81/81 82/82/82 83/83/83 
f 82/82/82 81/81/81 84/84/84 
f 85/85/85 86/86/86 87/87/87 
f 86/86/86 85/85/85 88/88/88 
f 89/89/89 90/90/90 91/91/91 
f 90/90/90 89/89/89 92/92/92 
f 93/93/93 94/94/94 95/95/95 
f 94/94/94 93/93/93 96/96/96 
f 97/97/97 98/98/98 99/99/99 
f 98/98/98 97/97/97 100/100/100 
f 101/101/101 102/102/102 103/103/103 
f 102/102/102 101/101/101 104/104/104 
f 105/105/105 106/106/106 107/107/107 
f 106/106/106 105/105/105 108/108/108 
f 109/109/109 110/110/110 111/111/111 
f 110/110/110 109/109/109 112/112/112 
f 113/113/113 114/114/114 115/115/115 
f 114/114/114 113/113/113 116/116/116 
f 117/117/117 118/118/118 119/119/119 
f 118/118/118 117/117/117 120/120/120 
f 121/121/121 122/122/122 123/123/123 
f 122/122/122 121/121/121 124/124/124 
f 125/125/125 126/126/126 127/127/127 
f 126/126/126 125/125/125 128/128/128 
f 129/129/129 130/130/130 131/131/131 
f 129/129/129 132/132/132 133/133/133 
f 130/130/130 134/134/134 135/135/135 
f 132/132/132 129/129/129 131/131/131 
f 129/129/129 133/133/133 136/136/136 
f 134/134/134 129/129/129 137/137/137 
f 130/130/130 129/129/129 134/134/134 
f 135/135/135 134/134/134 138/138/138 
f 135/135/135 138/138/138 139/139/139 
f 130/130/130 135/135/135 140/140/140 
f 131/131/131 130/130/130 141/141/141 
f 131/131/131 141/141/141 142/142/142 
f 131/131/131 142/142/142 143/143/143 
f 131/131/131 144/144/144 145/145/145 
f 144/144/144 131/131/131 146/146/146 
f 145/145/145 144/144/144 147/147/147 
f 145/145/145 147/147/147 148/148/148 
f 132/132/132 131/131/131 145/145/145 
f 149/149/149 145/145/145 150/150/150 
f 132/132/132 145/145/145 149/149/149 
f 151/151/151 152/152/152 132/132/132 
f 152/152/152 151/151/151 153/153/153 
f 133/133/133 132/132/132 152/152/152 
f 133/133/133 152/152/152 154/154/154 
f 155/155/155 133/133/133 156/156/156 
f 157/157/157 133/133/133 155/155/155 
f 136/136/136 133/133/133 157/157/157 
f 136/136/136 157/157/157 158/158/158 
f 159/159/159 129/129/129 136/136/136 
f 129/129/129 159/159/159 160/160/160 
f 161/161/161 162/162/162 163/163/163 
f 162/162/162 161/161/161 164/164/164 
f 165/165/165 166/166/166 167/167/167 
f 166/166/166 165/165/165 168/168/168 
f 169/169/169 170/170/170 171/171/171 
f 170/170/170 169/169/169 172/172/172 
f 173/173/173 174/174/174 175/175/175 
f 174/174/174 173/173/173 176/176/176 
f 177/177/177 178/178/178 179/179/179 
f 178/178/178 177/177/177 180/180/180 
f 181/181/181 182/182/182 183/183/183 
f 182/182/182 181/181/181 184/184/184 
f 185/185/185 186/186/186 187/187/187 
f 186/186/186 185/185/185 188/188/188 
f 189/189/189 190/190/190 191/191/191 
f 190/190/190 189/189/189 192/192/192 

